<?xml version="1.0" encoding="utf-8"?>
<!-- Generator: Adobe Illustrator 28.3.0, SVG Export Plug-In . SVG Version: 6.00 Build 0)  -->
<svg version="1.1" id="Camada_1" xmlns="http://www.w3.org/2000/svg" xmlns:xlink="http://www.w3.org/1999/xlink" x="0px" y="0px"
	 viewBox="0 0 1920 1080" style="enable-background:new 0 0 1920 1080;" xml:space="preserve">
<style type="text/css">
	.st0{fill:#FFFFFF;}
	.st1{fill:#459FD9;}
</style>
<g>
	<g>
		<path class="st0" d="M784.25,448.27v175.36c0,61.59-28.85,92.66-86.55,92.66c-57.69,0-86.54-31.07-86.54-92.66V448.27h-76.02
			v192.01c0,44.39,14.43,79.33,43.83,105.41c29.41,26.09,68.8,38.85,118.72,38.85c49.94,0,89.89-12.76,118.74-38.85
			c28.85-26.08,43.82-61.02,43.82-105.41V448.27H784.25z"/>
	</g>
	<g>
		<path class="st0" d="M1285.61,608.12c0,34.4-7.7,64.87-23.25,91.5c-15.56,26.7-37.21,47.15-64.95,62.15
			c-27.18,15.56-59.34,22.77-95.99,22.77c-35.44,0-66.56-7.78-93.18-22.77c-26.06-15.48-46.03-37.69-60.46-66.55
			c-14.43-28.87-21.65-63.27-21.65-103.2V318.37l75.46,0.02c0,0-0.56,283.64-0.56,289.17c0,32.72,10.02,58.78,28.87,78.74
			c19.41,19.97,44.34,29.99,74.33,29.99c30.47,0,54.93-10.02,73.77-29.99c19.41-19.96,28.87-46.03,28.87-78.74
			c0-32.16-9.46-58.78-28.87-78.83c-18.84-19.96-35.22-25.87-65.69-25.87c-18.76,0-39.49,6.49-51.84,20.27
			c-25.74-52.6-15.82-31-32.5-65.13c6.58-4.81,13.55-8.82,21.33-12.43c19.41-9.46,41.06-13.87,65.43-13.87
			c32.24,0,61.1,7.7,86.6,23.25c26.06,15,46.59,36.08,61.59,62.15C1277.91,543.73,1285.61,574.29,1285.61,608.12z"/>
	</g>
	<circle class="st1" cx="1070.35" cy="249.63" r="46.58"/>
	<g>
		<path class="st0" d="M1660.99,448.27h-83.83l-0.06,0.18l-104.56,185.2l-104.62-185.38l-83.82,0.05l146.77,259.91
			c-22.96,42.84-53.85,99.77-88.12,99.77h-20.63v68.95h17.77c85.64,0,117.94-64.02,166.08-154.08c0.05-0.08,0.08-0.16,0.12-0.24
			L1660.99,448.27z"/>
	</g>
	<g>
		<path class="st0" d="M489.88,716.3H358.09c-12.74,0-23.07-10.33-23.07-23.07V318.37h-76.01v383.16
			c0,45.85,37.17,83.02,83.02,83.02h147.86V716.3z"/>
	</g>
</g>
</svg>
